# xmcd
#
# Track frame offsets: 
#        150
#        16188
#        31873
#        48626
#        68203
#        90948
#        110515
#        129065
#        144627
#        164839
#        187776
#        208727
#
# Disc length: 2989 seconds
#
# Revision: 3
# Processed by: cddbd v1.5.2PL0 Copyright (c) Steve Scherf et al.
# Submitted via: ExactAudioCopy v0.99pb3
#
DISCID=9c0bab0c
DTITLE=Tim O'Brien - Traveler
DYEAR=2003
DGENRE=Bluegrass
TTITLE0=Kelly Joe's Shoes
TTITLE1=I've Endured
TTITLE2=Turn the Page Again
TTITLE3=Let Love Take You Back Again
TTITLE4=Restless Spirit Wandering
TTITLE5=Another Day
TTITLE6=On the Outside Looking In
TTITLE7=Forty-Nine Keep On Talkin'
TTITLE8=Family History
TTITLE9=Fell into Her Deep Blue Eyes
TTITLE10=Travelers
TTITLE11=Less and Less
EXTD=
EXTT0=
EXTT1=
EXTT2=
EXTT3=
EXTT4=
EXTT5=
EXTT6=
EXTT7=
EXTT8=
EXTT9=
EXTT10=
EXTT11=
PLAYORDER=
